<?xml version="1.0" standalone="no"?>
<!DOCTYPE svg PUBLIC "-//W3C//DTD SVG 20010904//EN"
 "http://www.w3.org/TR/2001/REC-SVG-20010904/DTD/svg10.dtd">
<svg version="1.0" xmlns="http://www.w3.org/2000/svg"
 width="1080.000000pt" height="1080.000000pt" viewBox="0 0 1080.000000 1080.000000"
 preserveAspectRatio="xMidYMid meet">

<g transform="translate(0.000000,1080.000000) scale(0.100000,-0.100000)"
fill="#000000" stroke="none">
<path d="M0 5400 l0 -5400 5400 0 5400 0 0 5400 0 5400 -5400 0 -5400 0 0
-5400z m2550 1190 c0 -200 0 -201 25 -225 22 -23 31 -25 122 -25 98 0 99 0
110 -27 15 -39 227 -503 269 -590 18 -39 34 -75 34 -78 0 -3 14 -35 31 -71 37
-76 61 -94 90 -68 19 17 20 31 17 458 l-3 441 -27 41 c-51 78 -130 124 -215
124 -60 0 -101 -19 -148 -69 -40 -42 -40 -42 -105 -39 l-65 3 -3 163 -2 162
390 0 c416 0 432 -2 475 -50 20 -22 20 -38 23 -801 3 -867 5 -836 -62 -864
-29 -12 -96 -15 -351 -15 l-315 0 0 200 c0 247 4 239 -127 241 -49 1 -93 1
-99 0 -7 -1 -19 16 -27 37 -8 21 -33 76 -55 122 -22 47 -47 103 -57 125 -10
22 -32 72 -50 110 -18 39 -67 149 -110 245 -83 185 -98 210 -125 210 -39 0
-40 -9 -40 -464 0 -430 1 -442 21 -476 51 -85 125 -130 213 -130 70 0 96 10
150 60 44 41 45 41 113 38 l68 -3 3 -157 3 -158 -411 0 -410 0 -32 29 -33 29
-3 786 c-3 867 -5 837 59 869 30 14 75 17 347 17 l312 0 0 -200z m3097 -127
c19 -9 48 -34 64 -56 56 -78 31 -200 -51 -246 -114 -64 -259 16 -260 143 0 76
52 153 115 169 42 10 98 6 132 -10z m-1287 -86 c22 -15 84 -86 130 -147 14
-18 37 -49 52 -69 15 -20 42 -56 60 -80 18 -24 47 -60 63 -81 17 -20 91 -118
165 -217 l135 -180 5 336 c5 325 6 338 28 383 38 77 140 104 213 55 66 -44 64
-24 67 -642 2 -379 0 -572 -8 -597 -16 -57 -60 -88 -126 -88 -83 0 -122 28
-222 160 -23 30 -45 60 -50 65 -4 6 -30 39 -57 75 -27 36 -90 118 -139 183
-50 66 -98 129 -106 140 -13 19 -113 151 -129 169 -3 4 -6 -140 -6 -320 0
-293 -2 -332 -18 -374 -26 -66 -64 -91 -137 -91 -75 0 -112 25 -135 92 -14 42
-15 115 -13 602 3 513 4 556 21 587 10 19 33 40 50 48 38 17 127 12 157 -9z
m4351 -20 c47 -32 67 -95 68 -219 l1 -98 45 0 c56 0 128 -33 146 -66 17 -33
17 -95 0 -127 -18 -34 -68 -57 -137 -64 l-54 -6 0 -282 c0 -317 -7 -364 -61
-409 -25 -21 -41 -26 -89 -26 -48 0 -64 5 -89 26 -54 45 -61 92 -61 409 l0
282 -46 7 c-56 7 -99 31 -113 63 -16 35 -13 105 5 132 20 28 88 60 127 61 l27
0 0 93 c1 145 20 200 85 235 35 20 109 14 146 -11z m-783 -306 c24 -12 52 -31
63 -42 l21 -21 38 37 c32 31 48 39 91 43 63 6 104 -13 134 -61 19 -30 20 -52
23 -412 2 -209 1 -398 -3 -421 -3 -25 -17 -53 -37 -74 -28 -31 -37 -35 -95
-38 l-64 -4 -44 45 c-41 43 -44 45 -59 28 -37 -41 -118 -74 -191 -79 -199 -13
-356 93 -437 293 -30 76 -32 87 -32 210 -1 142 12 200 61 284 62 107 190 211
285 231 72 15 198 5 246 -19z m-2257 -19 c47 -53 50 -84 47 -490 -3 -376 -3
-377 -27 -418 -28 -50 -55 -64 -124 -64 -43 0 -59 5 -85 28 -55 47 -62 98 -62
477 0 414 10 469 94 495 17 5 53 8 80 6 41 -3 55 -9 77 -34z m382 27 c12 -6
36 -25 54 -42 l32 -30 30 26 c52 43 121 60 225 55 101 -6 168 -32 224 -88 30
-30 47 -37 54 -22 9 22 108 84 157 98 74 22 209 15 271 -14 61 -28 85 -51 125
-117 50 -83 57 -147 53 -476 -3 -309 -5 -322 -64 -368 -41 -32 -132 -30 -173
5 -52 43 -61 96 -61 356 0 136 -5 247 -11 274 -16 63 -56 94 -121 94 -43 0
-54 -4 -83 -33 -47 -47 -55 -101 -55 -360 0 -122 -5 -239 -10 -259 -6 -21 -26
-50 -47 -68 -34 -30 -40 -32 -95 -28 -130 9 -147 53 -148 376 0 263 -7 309
-53 348 -27 23 -38 26 -84 22 -33 -3 -61 -12 -74 -24 -47 -41 -52 -72 -58
-367 l-6 -278 -42 -40 c-38 -35 -48 -39 -93 -39 -67 0 -105 21 -132 73 -23 42
-23 46 -23 432 0 386 0 390 23 432 12 23 34 49 50 57 32 18 105 20 135 5z
m2408 -1291 c-12 -21 -30 -34 -46 -36 -29 -4 -28 -5 -14 37 9 27 16 31 46 31
l35 0 -21 -32z m-203 -207 l-3 -146 -27 -3 -28 -3 0 154 0 154 30 -5 31 -4 -3
-147z m-6328 74 l33 -75 33 73 c31 68 35 72 66 72 l33 0 0 -145 0 -145 -30 0
c-30 0 -30 0 -33 64 l-3 64 -25 -36 c-31 -47 -55 -47 -80 -1 l-19 35 -5 -63
c-5 -63 -5 -63 -37 -66 l-33 -3 0 150 0 151 33 0 c32 0 35 -3 67 -75z m397
-67 c29 -78 50 -146 47 -150 -3 -4 -18 -8 -34 -8 -23 0 -30 5 -35 30 -6 28
-10 30 -52 30 -41 0 -46 -3 -56 -30 -9 -25 -17 -30 -44 -30 -17 0 -35 5 -38
10 -3 6 -1 10 4 10 6 0 11 4 11 10 0 5 21 68 47 140 44 121 48 130 73 130 24
0 29 -9 77 -142z m265 137 c2 -3 3 -17 0 -33 -3 -25 -7 -27 -37 -24 l-34 4 -3
-118 -3 -119 -30 0 -30 0 -3 118 -3 117 -34 0 c-32 0 -35 2 -35 30 l0 30 103
0 c57 0 106 -2 109 -5z m228 -27 l0 -33 -62 0 c-61 0 -63 -1 -66 -27 -3 -28
-2 -28 52 -28 56 0 56 0 56 -30 0 -30 0 -30 -56 -30 -54 0 -55 0 -52 -27 3
-27 5 -28 66 -28 l62 0 0 -32 0 -33 -95 0 -95 0 0 150 0 150 95 0 95 0 0 -32z
m211 22 c49 -27 61 -117 19 -147 -18 -12 -18 -38 -1 -53 3 -3 14 -22 23 -43
15 -32 16 -38 4 -43 -36 -14 -59 2 -88 59 -17 31 -36 57 -44 57 -9 0 -14 -17
-16 -57 -3 -57 -3 -58 -33 -58 l-30 0 -3 148 -3 147 76 0 c42 0 85 -5 96 -10z
m157 -137 l-3 -148 -30 0 -30 0 -3 148 -3 147 36 0 36 0 -3 -147z m206 70 c15
-43 39 -107 53 -142 15 -40 21 -67 15 -73 -18 -18 -56 -4 -70 25 -11 23 -19
27 -55 27 -38 0 -44 -3 -54 -30 -8 -22 -18 -30 -37 -30 -13 0 -27 4 -30 8 -3
5 9 47 25 93 17 46 40 110 51 142 17 50 23 57 47 57 24 0 29 -7 55 -77z m166
-43 l0 -120 66 0 65 0 -3 -27 -3 -28 -95 0 -95 0 -3 134 c-1 74 0 141 2 148 3
7 19 13 36 13 l30 0 0 -120z m358 88 c3 -27 3 -27 -65 -30 -65 -3 -68 -4 -68
-28 0 -23 4 -25 58 -28 57 -3 58 -4 55 -30 -3 -25 -6 -27 -61 -30 -57 -3 -58
-4 -55 -30 3 -26 5 -27 71 -30 68 -3 68 -3 65 -30 -3 -27 -4 -27 -83 -30 -130
-5 -120 -17 -117 153 l3 146 97 -3 97 -3 3 -27z m203 16 c30 -15 30 -16 13
-35 -14 -16 -25 -18 -65 -13 -41 6 -50 4 -55 -11 -9 -23 20 -45 58 -45 62 0
100 -83 63 -137 -30 -43 -131 -54 -185 -21 -45 28 -2 68 52 49 41 -15 54 -14
72 4 24 25 8 43 -44 50 -61 8 -85 33 -85 87 0 31 6 45 28 64 34 29 102 33 148
8z m350 -13 c25 -31 25 -101 1 -131 -13 -16 -32 -24 -70 -28 l-51 -4 -3 -52
c-3 -50 -4 -51 -35 -54 l-33 -3 0 151 0 152 86 -3 c76 -4 88 -7 105 -28z m184
19 c7 -11 95 -259 98 -275 1 -5 -12 -11 -28 -13 -26 -2 -32 2 -42 28 -10 27
-15 30 -57 30 -38 0 -46 -3 -46 -18 0 -10 -5 -23 -12 -30 -14 -14 -54 -16 -63
-3 -3 6 13 59 35 119 22 60 40 112 40 115 0 28 23 57 44 57 14 0 28 -4 31 -10z
m316 -19 c26 -32 25 -98 -2 -127 l-20 -22 25 -51 c14 -27 26 -55 26 -61 0 -5
-15 -10 -34 -10 -33 0 -36 3 -62 60 -35 77 -52 78 -56 3 -3 -57 -3 -58 -33
-58 l-30 0 -3 149 -3 148 87 -3 c76 -4 88 -7 105 -28z m199 19 c0 -6 20 -65
44 -133 58 -160 57 -152 19 -153 -27 -1 -34 4 -42 28 -9 25 -15 28 -53 28 -39
0 -45 -3 -55 -30 -9 -24 -17 -30 -42 -30 -17 0 -31 4 -31 10 0 5 23 73 51 150
50 135 53 140 80 140 16 0 29 -5 29 -10z m275 -113 l0 -117 67 0 c42 0 68 -4
70 -12 2 -6 14 18 26 53 62 177 74 199 102 199 23 0 28 -7 48 -67 12 -38 35
-102 51 -143 16 -41 27 -78 24 -82 -2 -5 -18 -8 -34 -8 -25 0 -30 5 -35 30 -6
28 -10 30 -50 30 -38 0 -45 -4 -59 -29 l-15 -30 -127 2 -128 2 -3 148 -3 148
33 -3 33 -3 0 -118z m666 108 c26 -14 49 -49 49 -76 0 -5 -16 -9 -35 -9 -24 0
-35 5 -35 15 0 20 -46 30 -65 15 -20 -16 -20 -129 -1 -155 12 -17 18 -18 40
-7 14 6 26 16 26 22 0 5 16 10 35 10 38 0 41 -6 24 -44 -29 -62 -132 -71 -181
-16 -26 28 -28 37 -28 108 1 45 6 87 14 101 27 49 99 65 157 36z m260 -14 c28
-28 29 -33 29 -121 0 -83 -2 -93 -24 -115 -50 -50 -154 -38 -176 21 -17 42
-12 176 6 202 35 51 120 57 165 13z m157 -1 c12 -16 22 -32 22 -36 0 -4 6 -15
14 -23 8 -9 22 -30 30 -46 16 -29 16 -28 16 53 l0 83 33 -3 32 -3 0 -145 0
-145 -27 -3 c-24 -3 -33 6 -74 70 -67 103 -66 103 -63 13 l2 -80 -31 -3 -32
-3 0 150 0 151 28 0 c20 0 35 -9 50 -30z m351 19 c62 -22 29 -62 -42 -53 -38
5 -48 4 -53 -10 -10 -26 12 -43 62 -49 57 -6 75 -28 71 -86 -1 -35 -8 -48 -30
-65 -35 -26 -124 -27 -163 -2 l-26 18 22 23 c20 21 24 22 48 9 34 -18 53 -18
77 0 27 19 6 42 -47 51 -60 10 -78 31 -78 86 0 39 5 51 26 68 30 23 83 27 133
10z m274 4 c2 -5 1 -19 -2 -33 -5 -20 -12 -25 -36 -25 l-30 0 -3 -118 -3 -118
-32 3 -32 3 -3 118 -3 117 -34 0 c-32 0 -35 2 -35 30 l0 30 104 0 c58 0 107
-3 109 -7z m212 -16 c18 -15 28 -36 32 -64 5 -36 2 -44 -21 -64 l-26 -23 30
-53 c17 -29 30 -57 30 -63 0 -5 -16 -10 -35 -10 -32 0 -37 4 -65 60 -17 33
-37 60 -45 60 -12 0 -15 -14 -15 -60 l0 -60 -30 0 -30 0 0 150 0 150 74 0 c63
0 79 -4 101 -23z m147 -88 c3 -94 6 -114 21 -123 12 -8 22 -8 35 0 14 9 18 31
22 120 l5 109 33 3 32 3 0 -115 c0 -108 -1 -116 -25 -144 -48 -57 -162 -47
-186 15 -5 13 -9 74 -9 134 l0 109 35 0 34 0 3 -111z m353 95 c32 -15 61 -64
48 -78 -15 -15 -61 -5 -75 16 -11 16 -20 20 -41 14 -20 -5 -28 -14 -33 -42
-18 -99 26 -169 73 -114 11 12 30 20 49 20 28 0 31 -3 27 -22 -21 -84 -159
-103 -198 -28 -19 37 -19 166 -1 199 27 49 91 64 151 35z m244 2 c25 -13 51
-52 51 -76 0 -6 -15 -10 -34 -10 -25 0 -35 5 -39 20 -6 23 -45 28 -65 8 -18
-18 -15 -133 4 -152 20 -21 30 -20 54 4 24 24 80 27 80 5 0 -8 -13 -29 -29
-47 -26 -29 -35 -33 -80 -33 -42 0 -55 5 -78 28 -26 26 -28 32 -28 118 0 90 0
91 33 120 37 33 85 38 131 15z m378 -10 c26 -22 28 -31 31 -109 5 -107 -10
-141 -69 -157 -29 -8 -50 -8 -75 0 -53 18 -64 42 -64 143 0 85 1 90 29 118 39
39 106 41 148 5z m189 -53 l49 -78 3 78 3 77 29 0 30 0 0 -151 0 -150 -26 3
c-25 3 -52 35 -121 144 -10 16 -12 4 -12 -64 l-1 -83 -27 3 -28 3 -3 148 -3
147 29 0 c25 0 36 -10 78 -77z"/>
<path d="M7755 5776 c-118 -53 -154 -247 -67 -364 36 -49 79 -72 135 -72 75 0
117 29 153 105 29 60 33 177 9 228 -47 99 -143 142 -230 103z"/>
<path d="M2236 4568 c-10 -38 -7 -48 14 -48 11 0 20 6 20 13 0 23 -12 57 -20
57 -4 0 -10 -10 -14 -22z"/>
<path d="M2930 4615 c0 -29 4 -35 21 -35 31 0 59 19 59 39 0 21 -19 31 -56 31
-21 0 -24 -5 -24 -35z"/>
<path d="M3332 4576 c-17 -39 -15 -56 8 -56 21 0 24 15 11 59 l-6 24 -13 -27z"/>
<path d="M4350 4614 c0 -34 1 -35 31 -32 63 6 61 68 -2 68 -27 0 -29 -3 -29
-36z"/>
<path d="M4613 4555 c-11 -33 -10 -35 13 -35 25 0 28 9 18 48 -9 31 -19 27
-31 -13z"/>
<path d="M4850 4615 c0 -41 23 -47 61 -16 20 16 21 21 10 35 -7 9 -26 16 -42
16 -26 0 -29 -3 -29 -35z"/>
<path d="M5126 4577 c-3 -14 -9 -32 -12 -41 -5 -12 0 -16 20 -16 24 0 26 3 20
28 -12 47 -21 57 -28 29z"/>
<path d="M5692 4560 c-15 -42 -16 -40 13 -40 28 0 34 24 12 55 -13 17 -15 16
-25 -15z"/>
<path d="M6266 4634 c-11 -10 -16 -34 -16 -74 0 -40 5 -64 16 -74 39 -39 74
-5 74 70 0 31 -5 64 -10 75 -13 23 -43 25 -64 3z"/>
<path d="M7257 4643 c-4 -3 -7 -19 -7 -35 0 -24 4 -28 28 -28 32 0 52 16 52
41 0 24 -55 41 -73 22z"/>
<path d="M8380 4631 c-5 -11 -10 -44 -10 -75 0 -72 28 -103 69 -77 23 15 28
133 6 154 -22 23 -52 21 -65 -2z"/>
</g>
</svg>
